<?xml version="1.0" encoding="UTF-8" standalone="no"?>
<!-- Created with Inkscape (http://www.inkscape.org/) -->
<svg
   xmlns:dc="http://purl.org/dc/elements/1.1/"
   xmlns:cc="http://web.resource.org/cc/"
   xmlns:rdf="http://www.w3.org/1999/02/22-rdf-syntax-ns#"
   xmlns:svg="http://www.w3.org/2000/svg"
   xmlns="http://www.w3.org/2000/svg"
   xmlns:xlink="http://www.w3.org/1999/xlink"
   xmlns:sodipodi="http://sodipodi.sourceforge.net/DTD/sodipodi-0.dtd"
   xmlns:inkscape="http://www.inkscape.org/namespaces/inkscape"
   width="462"
   height="285"
   id="svg2"
   sodipodi:version="0.32"
   inkscape:version="0.45.1"
   version="1.0"
   inkscape:output_extension="org.inkscape.output.svg.inkscape">
  <g
     inkscape:label="Layer 1"
     inkscape:groupmode="layer"
     id="layer1"
     transform="translate(-151.61583,-369.95507)">
    <path
       style="fill:#005694;fill-rule:nonzero;stroke:none"
       d="M 170.09824,473.20718 L 171.88816,473.20718 C 177.92159,473.20718 184.7092,472.07089 184.7092,464.33804 C 184.7092,456.60519 177.92159,455.47895 171.88816,455.47895 L 170.09824,455.47895 L 170.09824,473.20718 z M 210.74345,512.44459 L 187.73597,512.44459 L 170.27924,485.09304 L 170.09824,485.09304 L 170.09824,512.44459 L 151.61583,512.44459 L 151.61583,441.33056 L 179.24894,441.33056 C 193.29678,441.33056 203.95584,448.02766 203.95584,463.2118 C 203.95584,473.01612 198.47548,481.50315 188.38959,483.29307 L 210.74345,512.44459"
       id="path3415" />
    <path
       style="fill:#005694;fill-rule:nonzero;stroke:none"
       d="M 226.81269,488.29076 C 226.81269,494.42475 230.86515,499.14088 237.84381,499.14088 C 244.82248,499.14088 248.88499,494.42475 248.88499,488.29076 C 248.88499,482.34783 244.82248,477.35014 237.84381,477.35014 C 230.86515,477.35014 226.81269,482.34783 226.81269,488.29076 z M 265.47693,512.43454 L 248.31182,512.43454 L 248.31182,507.06478 L 248.13081,507.06478 C 245.1141,511.87142 239.16111,514.0334 233.5098,514.0334 C 219.1804,514.0334 209.08446,502.06709 209.08446,488.20026 C 209.08446,474.33342 218.98934,462.44756 233.31874,462.44756 C 238.88961,462.44756 244.73198,464.5291 248.31182,468.77261 L 248.31182,464.05648 L 265.47693,464.05648 L 265.47693,512.43454"
       id="path3419" />
    <path
       style="fill:#005694;fill-rule:nonzero;stroke:none"
       d="M 294.77909,445.47351 C 294.77909,450.75276 290.44507,455.08678 285.16582,455.08678 C 279.87651,455.08678 275.5425,450.75276 275.5425,445.47351 C 275.5425,440.19426 279.87651,435.85019 285.16582,435.85019 C 290.44507,435.85019 294.77909,440.19426 294.77909,445.47351 z M 293.74335,512.43454 L 276.57824,512.43454 L 276.57824,464.05648 L 293.74335,464.05648 L 293.74335,512.43454 z "
       id="path3423" />
    <path
       style="fill:#005694;fill-rule:nonzero;stroke:none"
       d="M 613.61584,512.45465 L 471.13637,512.45465 L 471.13637,369.95507 L 474.30392,369.95507 C 474.30392,369.95507 476.86813,389.39277 489.15622,408.44836 C 498.68904,423.24032 509.91122,430.90278 514.91897,436.52392 C 519.92672,442.15512 520.6105,439.67136 526.75455,456.98731 C 535.13096,480.57802 530.64611,468.39049 532.17458,472.53345 C 533.70305,476.6764 534.39689,479.71323 537.5745,481.32215 C 539.60576,482.35789 542.29063,482.30761 544.79451,481.73443 C 547.30844,481.1512 551.53184,479.30095 553.70387,480.02496 C 555.8558,480.73891 558.38984,482.16683 559.83786,485.05282 C 561.27583,487.92875 562.56296,490.41252 565.12717,490.23151 C 566.30369,490.14101 568.77739,489.26616 570.50698,490.01029 C 572.25667,490.74435 571.26116,491.98121 571.774,493.21806 C 572.26673,494.45491 573.01085,496.31522 575.9974,496.55656 C 578.97389,496.7979 577.47559,496.46606 580.19063,495.87277 C 582.423,495.3901 583.7403,495.8426 586.00284,497.32079 C 588.80838,499.14088 587.9637,501.5442 596.23956,505.27487 C 604.12324,508.82454 609.1511,509.48821 613.61584,509.2871 L 613.61584,512.45465"
       id="path3427" />
    <path
       style="fill:#005694;fill-rule:nonzero;stroke:none"
       d="M 471.11636,654.95423 L 471.11636,512.47476 L 328.61678,512.47476 L 328.60673,515.64231 C 328.60673,515.64231 348.05448,518.20652 367.11007,530.49461 C 381.90203,540.03748 389.56449,551.25967 395.18563,556.25736 C 400.81684,561.2651 398.33307,561.95895 415.64902,568.10299 C 439.24979,576.47941 427.0522,571.99456 431.19516,573.51297 C 435.33812,575.04144 438.385,575.74534 439.98386,578.91289 C 441.0196,580.93409 440.96932,583.62902 440.39614,586.1329 C 439.81291,588.64682 437.96266,592.87023 438.67661,595.04226 C 439.40063,597.20424 440.82854,599.71817 443.70447,601.17625 C 446.59046,602.62427 449.07423,603.90135 448.89322,606.46556 C 448.81278,607.64208 447.92787,610.11578 448.672,611.85542 C 449.40607,613.59506 450.63286,612.6096 451.87977,613.11239 C 453.11663,613.61517 454.97693,614.3593 455.21827,617.34584 C 455.45961,620.32234 455.12777,618.81398 454.53448,621.53908 C 454.06186,623.76139 454.51437,625.06864 455.9825,627.34123 C 457.80259,630.13672 460.20591,629.30209 463.93658,637.56789 C 467.4963,645.46163 468.14992,650.47943 467.95887,654.95423 L 471.11636,654.95423"
       id="path3431" />
  </g>
</svg>
